<svg id="_图层_1" data-name="图层 1" xmlns="http://www.w3.org/2000/svg" viewBox="0 0 200 90" style="clip-path: polygon(44% 20%, 104% 20%, 104% 80%, 44% 80%);">
  <defs>
    <style>
      .cls-1 {
        fill: #fcfcfc;
      }

      .cls-2 {
        fill: #fbfbfb;
      }

      .cls-3 {
        fill: #fefefe;
      }

      .cls-4 {
        fill: #fdfdfd;
      }
    </style>
  </defs>
  <path class="cls-4" d="M77,73.08c-.02.47.03.94,0,1.41-.12,1.92-.16,4.59-.48,6.41-.04.26-.36.97-.54,1.16-.87.94-2.1-.11-2.83-.68-3.02-2.37-5.41-5.9-8.57-8.13-3.26-.12-6.52-.01-9.78-.05-.27,0-.51-.12-.78-.12-2.9-.03-6.73.32-9.49,0-.46-.05-1.64-.75-1.64-1.19v-10.33h-7.39l-11.01,9.65c-.38.57-2.48.1-2.48-.33v-9.31h-11.35c-.26,0-1.1-.67-1.11-1.04-.18-9.93-.02-19.9-.08-29.84.14-1.65,2.22-1.72,3.5-2.03,13.48-3.25,27.41-6.45,40.98-9.26,1.56-.32,3.11-1.04,3.39,1.24l.06,20.6c.18.29,3.44,1.24,4.01,1.41,7.32,2.2,14.96,3.75,22.21,6.12.69.23,2.63.79,3.08,1.21.81.76.34,2.41.33,3.39-.08,5.56.53,11.18.24,16.71-.03.49-.13,1.91-.31,2.28-.06.12-.93.7-.99.7h-8.98ZM54.2,22.28L12.43,31.99v26.52h11.12c.08,0,1.3.88,1.3.96v7.28c.39-.02.81-.47,1.13-.73,1.24-1.02,7.96-7.51,8.86-7.51h8.07v-19.58c0-.24,1.38-1.43,1.85-1.06l9.44,2.7v-18.29ZM54.2,58.52v-14.73c0-.06-.5-.37-.63-.39l-7.61-2.04v16.99s.16.17.17.17h8.07ZM57.25,44.63v15.97c0,.07-.97.96-1.07.96h-10.22v8.3s.16.17.17.17h19.19c.19,0,1.71,1.28,1.98,1.52,1.79,1.61,3.47,3.66,5.3,5.2.34.29.72.55,1.13.73.46-1.86,0-3.94.37-5.78.14-.69.74-1.58,1.49-1.67,2.49-.29,5.67.32,8.14,0,.35-.05.6-.25.62-.62v-17.33s-27.1-7.45-27.1-7.45Z"></path>
  <path class="cls-3" d="M187.65,28.15c-.13,1.12-.6,2.33-.68,3.44-.02.23-.07,1.3.28,1.3h6.04c.03,1.67.02,3.72-2.09,3.95-1.39.15-2.78-.28-4.17,0-.24.05-.51.16-.6.41l-3.05,23.82c-.04.09.11.25.15.25h8.3v1.64c0,.32-.46,1.85-.65,2.17-.13.21-.66.71-.87.71h-26.02v-1.86c0-.35.54-1.4.79-1.69,1.64-1.9,6.09-.71,8.34-.97l2.83-24.48h-6.77c-.36-2.47.58-3.87,3.11-4.06.78-.06,3.7.15,4.12-.06s.44-3.06,1.53-4.01c.11-.09.84-.57.9-.57h8.52Z"></path>
  <path class="cls-3" d="M163.37,28.15l-.23,2.14h3.56c.74,0,.2,3.45,0,3.95l-5.13,9.6c1.17-.07,2.33-.06,2.88,1.13l2.2,10.27h-2.09c-.56,0-2.02-.87-2.43-1.29-.95-.98-.98-2.17-1.8-3.11l-1.92,15.01h-7.17s-.19-.18-.16-.27l.9-10.11h-4.4l11.18-21.9h-7.9c-.23-.69,0-2.66.57-3.1.9-.71,3.04.13,3.98-.19.27-.09.78-2.13,1.26-2.13h6.72Z"></path>
  <path class="cls-3" d="M118.89,44.63l-.68,7h8.13c0-1.31.64-2.66.34-3.95h-7.34l.45-3.05h14.23l-1.72,14.02c-.74,3.89-3.2,4.29-6.68,4.49s-8.21.35-11.52-.12c-4.64-.66-3.77-4.78-3.31-8.28s1.31-6.7,1.22-10.12h6.89ZM125.89,54.9h-8.13c-.23,1.56-.68,3.17-.34,4.74h7.62c.49,0,.88-4.18.85-4.74Z"></path>
  <path class="cls-3" d="M143.84,38.76l-2.63,23.17c0,1.07-2.38,3.92-3.3,3.92h-8.19c-.14-.98.45-2.92,1.55-3.13.91-.18,2.28.19,2.71-1.02l2.29-19.21h-23.2c-.24,0-.19-1.27-.17-1.53.04-.71.26-1.48.34-2.2h30.6Z"></path>
  <path class="cls-3" d="M110.2,44.86l-2.37,20.99h-7v-.85c1-5.95,1.01-12.36,2.04-18.27.05-.31.53-1.87.83-1.87h6.49Z"></path>
  <path class="cls-3" d="M103.65,37.63c1-3.1,2.4-6.09,3.5-9.17.2-.31,1.55-.41,1.97-.43,1.07-.06,3.41-.14,4.4.01.77.12.42.76.58.79h10.59c.4.14.15,1.83-.02,2.22s-.8.94-1.21.94h-1.98l.23,5.64h-3.78c-.15,0-1.22-.6-1.4-.74-1.6-1.21-1.32-3.13-1.71-4.9-.76.1-1.59-.42-2.2.22-.75,1.4-1.12,3.41-2.14,4.63-.15.18-.83.79-1.02.79h-5.81Z"></path>
  <path class="cls-3" d="M124.08,37.63c.62-1.89,1.23-3.81,1.95-5.67.37-.97.85-2.49,1.42-3.32.39-.58,1.11-.56,1.77-.6,1.13-.07,3.7-.15,4.74.01.5.08.56.31.52.78l10.61.17c.45.3.03,2.29-.29,2.65-.15.17-.58.3-.8.33-1.25.17-1.69-.74-1.63.97.04.97.3,2.07.34,3.04.01.27.07,1.64-.17,1.64h-3.95c-.07,0-1.06-.62-1.19-.73-1.42-1.18-1.08-3.27-1.36-4.91-1.64.08-2.91-.8-3.64,1.15-.39,1.04-.46,2.27-1.07,3.21-.15.23-1.12,1.28-1.32,1.28h-5.93Z"></path>
  <path class="cls-1" d="M55.76,75.71c1.51-.06,3.21-.1,4.71-.04.69.03,1.94.08,2.56.26,1.28.38,1.66,1.88.47,2.66-.86.56-1.96.41-2.92.47-2.17.14-5.67.33-7.76-.15-1.2-.27-2.17-1.18-1.16-2.34.81-.93,2.9-.82,4.1-.87Z"></path>
  <path class="cls-3" d="M110.65,43.28h-6.38c-.14,0-.73-.59-.73-.73v-4.01h6.15c.07,0,.96,1,.96,1.07v3.67Z"></path>
  <path class="cls-4" d="M19.06,21.19c.89-.09,1.93-.08,2.33.88s-.13,1.58-.99,1.93c-1.32.55-6.81,1.83-8.18,1.87-1.89.04-2.59-1.93-.78-2.81,1.37-.66,6.04-1.71,7.62-1.87Z"></path>
  <path class="cls-1" d="M26.51,19.49c1.67-.16,2.75,1.49,1.55,2.57-.86.77-3.53,1.23-4.45.38-1.81-1.65,1.64-2.83,2.9-2.95Z"></path>
  <path class="cls-2" d="M47.29,75.82c1.04-.12,2.45.24,2.51,1.5.13,2.33-4.18,2.15-4.19.11,0-.99.8-1.5,1.68-1.61Z"></path>
</svg>